<?xml version="1.0" encoding="UTF-8" standalone="no"?>
<svg
   height="424.00089pt"
   version="1.1"
   viewBox="0 0 439.11136 424.00087"
   width="439.11136pt"
   id="svg184811"
   sodipodi:docname="p-value-histogram.svg"
   inkscape:version="1.2 (dc2aedaf03, 2022-05-15)"
   xmlns:inkscape="http://www.inkscape.org/namespaces/inkscape"
   xmlns:sodipodi="http://sodipodi.sourceforge.net/DTD/sodipodi-0.dtd"
   xmlns:xlink="http://www.w3.org/1999/xlink"
   xmlns="http://www.w3.org/2000/svg"
   xmlns:svg="http://www.w3.org/2000/svg"
   xmlns:rdf="http://www.w3.org/1999/02/22-rdf-syntax-ns#"
   xmlns:cc="http://creativecommons.org/ns#"
   xmlns:dc="http://purl.org/dc/elements/1.1/">
  <sodipodi:namedview
     id="namedview184813"
     pagecolor="#ffffff"
     bordercolor="#666666"
     borderopacity="1.0"
     inkscape:showpageshadow="2"
     inkscape:pageopacity="0.0"
     inkscape:pagecheckerboard="0"
     inkscape:deskcolor="#d1d1d1"
     inkscape:document-units="pt"
     showgrid="false"
     inkscape:zoom="0.57054923"
     inkscape:cx="92.0166"
     inkscape:cy="170.01162"
     inkscape:window-width="1440"
     inkscape:window-height="837"
     inkscape:window-x="1912"
     inkscape:window-y="-8"
     inkscape:window-maximized="1"
     inkscape:current-layer="axes_1" />
  <metadata
     id="metadata184442">
    <rdf:RDF>
      <cc:Work>
        <dc:type
           rdf:resource="http://purl.org/dc/dcmitype/StillImage" />
        <dc:date>2022-09-21T17:19:29.419025</dc:date>
        <dc:format>image/svg+xml</dc:format>
        <dc:creator>
          <cc:Agent>
            <dc:title>Matplotlib v3.4.2, https://matplotlib.org/</dc:title>
          </cc:Agent>
        </dc:creator>
      </cc:Work>
    </rdf:RDF>
  </metadata>
  <defs
     id="defs184446">
    <rect
       x="123.9344"
       y="-52.052448"
       width="406.50485"
       height="59.488514"
       id="rect185489" />
    <style
       type="text/css"
       id="style184444">*{stroke-linecap:butt;stroke-linejoin:round;}</style>
    <rect
       x="123.9344"
       y="-52.052448"
       width="406.50485"
       height="59.488514"
       id="rect185489-2" />
  </defs>
  <g
     id="figure_1"
     transform="translate(-14.888633,-41.905875)">
    <g
       id="axes_1">
      <g
         id="patch_2">
        <path
           d="M 63,422.928 H 453.6 V 57.024 H 63 Z"
           style="fill:#ffffff"
           id="path184451" />
      </g>
      <g
         id="patch_3"
         style="fill:#666666;stroke:#000000;stroke-opacity:1">
        <path
           clip-path="url(#pd49cec9384)"
           d="m 199.11818,422.928 h 23.67273 v -25.49854 h -23.67273 z"
           style="fill:#666666;stroke:#000000;stroke-opacity:1"
           id="path184454" />
      </g>
      <g
         id="patch_4"
         style="fill:#666666;stroke:#000000;stroke-opacity:1">
        <path
           clip-path="url(#pd49cec9384)"
           d="m 222.79091,422.928 h 23.67273 V 320.93385 h -23.67273 z"
           style="fill:#666666;stroke:#000000;stroke-opacity:1"
           id="path184457" />
      </g>
      <g
         id="patch_5">
        <path
           clip-path="url(#pd49cec9384)"
           d="m 246.46364,422.928 h 23.67272 v 0 z"
           style="fill:#0000ff"
           id="path184460" />
      </g>
      <g
         id="patch_6"
         style="fill:#666666;stroke:#000000;stroke-opacity:1">
        <path
           clip-path="url(#pd49cec9384)"
           d="m 270.13636,422.928 h 23.67273 V 261.43727 h -23.67273 z"
           style="fill:#666666;stroke:#000000;stroke-opacity:1"
           id="path184463" />
      </g>
      <g
         id="patch_7">
        <path
           clip-path="url(#pd49cec9384)"
           d="m 293.80909,422.928 h 23.67273 v 0 z"
           style="fill:#0000ff"
           id="path184466" />
      </g>
      <g
         id="patch_8"
         style="fill:#666666;stroke:#000000;stroke-opacity:1">
        <path
           clip-path="url(#pd49cec9384)"
           d="m 317.48182,422.928 h 23.67272 V 74.448 h -23.67272 z"
           style="fill:#666666;stroke:#000000;stroke-opacity:1"
           id="path184469" />
      </g>
      <g
         id="patch_9"
         style="fill:#666666;stroke:#000000;stroke-opacity:1">
        <path
           clip-path="url(#pd49cec9384)"
           d="m 341.15454,422.928 h 23.67273 V 286.93581 h -23.67273 z"
           style="fill:#666666;stroke:#000000;stroke-opacity:1"
           id="path184472" />
      </g>
      <g
         id="patch_10">
        <path
           clip-path="url(#pd49cec9384)"
           d="M 364.82727,422.928 H 388.5 v 0 z"
           style="fill:#0000ff"
           id="path184475" />
      </g>
      <g
         id="patch_11"
         style="fill:#666666;stroke:#000000;stroke-opacity:1">
        <path
           clip-path="url(#pd49cec9384)"
           d="m 388.5,422.928 h 23.67273 V 354.9319 H 388.5 Z"
           style="fill:#666666;stroke:#000000;stroke-opacity:1"
           id="path184478" />
      </g>
      <g
         id="patch_12"
         style="fill:#666666;stroke:#000000;stroke-opacity:1">
        <path
           clip-path="url(#pd49cec9384)"
           d="m 412.17273,422.928 h 23.67273 v -8.49951 h -23.67273 z"
           style="fill:#666666;stroke:#000000;stroke-opacity:1"
           id="path184481" />
      </g>
      <g
         id="matplotlib.axis_1">
        <g
           id="xtick_1">
          <g
             id="line2d_1">
            <defs
               id="defs184485">
              <path
                 d="M 0,0 V 3.5"
                 id="m6b36501c5e"
                 style="stroke:#000000;stroke-width:0.8" />
            </defs>
            <g
               id="g184489">
              <use
                 style="stroke:#000000;stroke-width:0.8"
                 x="80.754547"
                 xlink:href="#m6b36501c5e"
                 y="422.92801"
                 id="use184487" />
            </g>
          </g>
          <g
             id="text_1">
            <!-- 12 -->
            <g
               transform="matrix(0.1,0,0,-0.1,74.392045,437.52644)"
               id="g184500">
              <defs
                 id="defs184494">
                <path
                   d="M 794,531 H 1825 V 4091 L 703,3866 v 575 l 1116,225 h 631 V 531 H 3481 V 0 H 794 Z"
                   id="DejaVuSans-31"
                   transform="scale(0.015625)" />
                <path
                   d="M 1228,531 H 3431 V 0 H 469 v 531 q 359,372 979,998 621,627 780,809 303,340 423,576 121,236 121,464 0,372 -261,606 -261,235 -680,235 -297,0 -627,-103 -329,-103 -704,-313 v 638 q 381,153 712,231 332,78 607,78 725,0 1156,-363 431,-362 431,-968 0,-288 -108,-546 -107,-257 -392,-607 -78,-91 -497,-524 Q 1991,1309 1228,531 Z"
                   id="DejaVuSans-32"
                   transform="scale(0.015625)" />
              </defs>
              <use
                 xlink:href="#DejaVuSans-31"
                 id="use184496" />
              <use
                 x="63.623047"
                 xlink:href="#DejaVuSans-32"
                 id="use184498" />
            </g>
          </g>
        </g>
        <g
           id="xtick_2">
          <g
             id="line2d_2">
            <g
               id="g184506">
              <use
                 style="stroke:#000000;stroke-width:0.8"
                 x="159.66364"
                 xlink:href="#m6b36501c5e"
                 y="422.92801"
                 id="use184504" />
            </g>
          </g>
          <g
             id="text_2">
            <!-- 14 -->
            <g
               transform="matrix(0.1,0,0,-0.1,153.30114,437.52644)"
               id="g184516">
              <defs
                 id="defs184510">
                <path
                   d="M 2419,4116 825,1625 h 1594 z m -166,550 h 794 V 1625 h 666 V 1100 H 3047 V 0 H 2419 V 1100 H 313 v 609 z"
                   id="DejaVuSans-34"
                   transform="scale(0.015625)" />
              </defs>
              <use
                 xlink:href="#DejaVuSans-31"
                 id="use184512" />
              <use
                 x="63.623047"
                 xlink:href="#DejaVuSans-34"
                 id="use184514" />
            </g>
          </g>
        </g>
        <g
           id="xtick_3">
          <g
             id="line2d_3">
            <g
               id="g184522">
              <use
                 style="stroke:#000000;stroke-width:0.8"
                 x="238.57272"
                 xlink:href="#m6b36501c5e"
                 y="422.92801"
                 id="use184520" />
            </g>
          </g>
          <g
             id="text_3">
            <!-- 16 -->
            <g
               transform="matrix(0.1,0,0,-0.1,232.21023,437.52644)"
               id="g184532">
              <defs
                 id="defs184526">
                <path
                   d="m 2113,2584 q -425,0 -674,-291 -248,-290 -248,-796 0,-503 248,-796 249,-292 674,-292 425,0 673,292 248,293 248,796 0,506 -248,796 -248,291 -673,291 z m 1253,1979 v -575 q -238,112 -480,171 -242,60 -480,60 -625,0 -955,-422 -329,-422 -376,-1275 184,272 462,417 279,145 613,145 703,0 1111,-427 408,-426 408,-1160 0,-719 -425,-1154 -425,-434 -1131,-434 -810,0 -1238,620 -428,621 -428,1799 0,1106 525,1764 525,658 1409,658 238,0 480,-47 242,-47 505,-140 z"
                   id="DejaVuSans-36"
                   transform="scale(0.015625)" />
              </defs>
              <use
                 xlink:href="#DejaVuSans-31"
                 id="use184528" />
              <use
                 x="63.623047"
                 xlink:href="#DejaVuSans-36"
                 id="use184530" />
            </g>
          </g>
        </g>
        <g
           id="xtick_4">
          <g
             id="line2d_4">
            <g
               id="g184538">
              <use
                 style="stroke:#000000;stroke-width:0.8"
                 x="317.48181"
                 xlink:href="#m6b36501c5e"
                 y="422.92801"
                 id="use184536" />
            </g>
          </g>
          <g
             id="text_4">
            <!-- 18 -->
            <g
               transform="matrix(0.1,0,0,-0.1,311.11932,437.52644)"
               id="g184548">
              <defs
                 id="defs184542">
                <path
                   d="m 2034,2216 q -450,0 -708,-241 -257,-241 -257,-662 0,-422 257,-663 258,-241 708,-241 450,0 709,242 260,243 260,662 0,421 -258,662 -257,241 -711,241 z m -631,268 q -406,100 -633,378 -226,279 -226,679 0,559 398,884 399,325 1092,325 697,0 1094,-325 397,-325 397,-884 0,-400 -227,-679 -226,-278 -629,-378 456,-106 710,-416 255,-309 255,-755 Q 3634,634 3220,271 2806,-91 2034,-91 1263,-91 848,271 434,634 434,1313 q 0,446 256,755 257,310 713,416 z m -231,997 q 0,-362 226,-565 227,-203 636,-203 407,0 636,203 230,203 230,565 0,363 -230,566 -229,203 -636,203 -409,0 -636,-203 -226,-203 -226,-566 z"
                   id="DejaVuSans-38"
                   transform="scale(0.015625)" />
              </defs>
              <use
                 xlink:href="#DejaVuSans-31"
                 id="use184544" />
              <use
                 x="63.623047"
                 xlink:href="#DejaVuSans-38"
                 id="use184546" />
            </g>
          </g>
        </g>
        <g
           id="xtick_5">
          <g
             id="line2d_5">
            <g
               id="g184554">
              <use
                 style="stroke:#000000;stroke-width:0.8"
                 x="396.3909"
                 xlink:href="#m6b36501c5e"
                 y="422.92801"
                 id="use184552" />
            </g>
          </g>
          <g
             id="text_5">
            <!-- 20 -->
            <g
               transform="matrix(0.1,0,0,-0.1,390.02841,437.52644)"
               id="g184564">
              <defs
                 id="defs184558">
                <path
                   d="m 2034,4250 q -487,0 -733,-480 -245,-479 -245,-1442 0,-959 245,-1439 246,-480 733,-480 491,0 736,480 246,480 246,1439 0,963 -246,1442 -245,480 -736,480 z m 0,500 q 785,0 1199,-621 414,-620 414,-1801 0,-1178 -414,-1799 -414,-620 -1199,-620 -784,0 -1198,620 -414,621 -414,1799 0,1181 414,1801 414,621 1198,621 z"
                   id="DejaVuSans-30"
                   transform="scale(0.015625)" />
              </defs>
              <use
                 xlink:href="#DejaVuSans-32"
                 id="use184560" />
              <use
                 x="63.623047"
                 xlink:href="#DejaVuSans-30"
                 id="use184562" />
            </g>
          </g>
        </g>
      </g>
      <g
         id="matplotlib.axis_2">
        <g
           id="ytick_1">
          <g
             id="line2d_6">
            <defs
               id="defs184602">
              <path
                 d="M 0,0 H -3.5"
                 id="mcc6db79a2a"
                 style="stroke:#000000;stroke-width:0.8" />
            </defs>
            <g
               id="g184606">
              <use
                 style="stroke:#000000;stroke-width:0.8"
                 x="63"
                 xlink:href="#mcc6db79a2a"
                 y="422.92801"
                 id="use184604" />
            </g>
          </g>
          <g
             id="text_7">
            <!-- 0 -->
            <g
               transform="matrix(0.1,0,0,-0.1,49.6375,426.72722)"
               id="g184611">
              <use
                 xlink:href="#DejaVuSans-30"
                 id="use184609" />
            </g>
          </g>
        </g>
        <g
           id="ytick_2">
          <g
             id="line2d_7">
            <g
               id="g184617">
              <use
                 style="stroke:#000000;stroke-width:0.8"
                 x="63"
                 xlink:href="#mcc6db79a2a"
                 y="380.43045"
                 id="use184615" />
            </g>
          </g>
          <g
             id="text_8">
            <!-- 5 -->
            <g
               transform="matrix(0.1,0,0,-0.1,49.6375,384.22966)"
               id="g184625">
              <defs
                 id="defs184621">
                <path
                   d="M 691,4666 H 3169 V 4134 H 1269 V 2991 q 137,47 274,70 138,23 276,23 781,0 1237,-428 457,-428 457,-1159 Q 3513,744 3044,326 2575,-91 1722,-91 1428,-91 1123,-41 819,9 494,109 v 635 q 281,-153 581,-228 300,-75 634,-75 541,0 856,284 316,284 316,772 0,487 -316,771 -315,285 -856,285 -253,0 -505,-56 -251,-56 -513,-175 z"
                   id="DejaVuSans-35"
                   transform="scale(0.015625)" />
              </defs>
              <use
                 xlink:href="#DejaVuSans-35"
                 id="use184623" />
            </g>
          </g>
        </g>
        <g
           id="ytick_3">
          <g
             id="line2d_8">
            <g
               id="g184631">
              <use
                 style="stroke:#000000;stroke-width:0.8"
                 x="63"
                 xlink:href="#mcc6db79a2a"
                 y="337.93289"
                 id="use184629" />
            </g>
          </g>
          <g
             id="text_9">
            <!-- 10 -->
            <g
               transform="matrix(0.1,0,0,-0.1,43.275,341.7321)"
               id="g184638">
              <use
                 xlink:href="#DejaVuSans-31"
                 id="use184634" />
              <use
                 x="63.623047"
                 xlink:href="#DejaVuSans-30"
                 id="use184636" />
            </g>
          </g>
        </g>
        <g
           id="ytick_4">
          <g
             id="line2d_9">
            <g
               id="g184644">
              <use
                 style="stroke:#000000;stroke-width:0.8"
                 x="63"
                 xlink:href="#mcc6db79a2a"
                 y="295.4353"
                 id="use184642" />
            </g>
          </g>
          <g
             id="text_10">
            <!-- 15 -->
            <g
               transform="matrix(0.1,0,0,-0.1,43.275,299.23454)"
               id="g184651">
              <use
                 xlink:href="#DejaVuSans-31"
                 id="use184647" />
              <use
                 x="63.623047"
                 xlink:href="#DejaVuSans-35"
                 id="use184649" />
            </g>
          </g>
        </g>
        <g
           id="ytick_5">
          <g
             id="line2d_10">
            <g
               id="g184657">
              <use
                 style="stroke:#000000;stroke-width:0.8"
                 x="63"
                 xlink:href="#mcc6db79a2a"
                 y="252.93776"
                 id="use184655" />
            </g>
          </g>
          <g
             id="text_11">
            <!-- 20 -->
            <g
               transform="matrix(0.1,0,0,-0.1,43.275,256.73697)"
               id="g184664">
              <use
                 xlink:href="#DejaVuSans-32"
                 id="use184660" />
              <use
                 x="63.623047"
                 xlink:href="#DejaVuSans-30"
                 id="use184662" />
            </g>
          </g>
        </g>
        <g
           id="ytick_6">
          <g
             id="line2d_11">
            <g
               id="g184670">
              <use
                 style="stroke:#000000;stroke-width:0.8"
                 x="63"
                 xlink:href="#mcc6db79a2a"
                 y="210.4402"
                 id="use184668" />
            </g>
          </g>
          <g
             id="text_12">
            <!-- 25 -->
            <g
               transform="matrix(0.1,0,0,-0.1,43.275,214.23941)"
               id="g184677">
              <use
                 xlink:href="#DejaVuSans-32"
                 id="use184673" />
              <use
                 x="63.623047"
                 xlink:href="#DejaVuSans-35"
                 id="use184675" />
            </g>
          </g>
        </g>
        <g
           id="ytick_7">
          <g
             id="line2d_12">
            <g
               id="g184683">
              <use
                 style="stroke:#000000;stroke-width:0.8"
                 x="63"
                 xlink:href="#mcc6db79a2a"
                 y="167.94263"
                 id="use184681" />
            </g>
          </g>
          <g
             id="text_13">
            <!-- 30 -->
            <g
               transform="matrix(0.1,0,0,-0.1,43.275,171.74185)"
               id="g184693">
              <defs
                 id="defs184687">
                <path
                   d="m 2597,2516 q 453,-97 707,-404 255,-306 255,-756 0,-690 -475,-1069 -475,-378 -1350,-378 -293,0 -604,58 -311,58 -642,174 v 609 q 262,-153 574,-231 313,-78 654,-78 593,0 904,234 311,234 311,681 0,413 -289,645 -289,233 -804,233 h -544 v 519 h 569 q 465,0 712,186 247,186 247,536 0,359 -255,551 -254,193 -729,193 -260,0 -557,-57 -297,-56 -653,-174 v 562 q 360,100 674,150 314,50 592,50 719,0 1137,-327 419,-326 419,-882 0,-388 -222,-655 -222,-267 -631,-370 z"
                   id="DejaVuSans-33"
                   transform="scale(0.015625)" />
              </defs>
              <use
                 xlink:href="#DejaVuSans-33"
                 id="use184689" />
              <use
                 x="63.623047"
                 xlink:href="#DejaVuSans-30"
                 id="use184691" />
            </g>
          </g>
        </g>
        <g
           id="ytick_8">
          <g
             id="line2d_13">
            <g
               id="g184699">
              <use
                 style="stroke:#000000;stroke-width:0.8"
                 x="63"
                 xlink:href="#mcc6db79a2a"
                 y="125.44508"
                 id="use184697" />
            </g>
          </g>
          <g
             id="text_14">
            <!-- 35 -->
            <g
               transform="matrix(0.1,0,0,-0.1,43.275,129.24429)"
               id="g184706">
              <use
                 xlink:href="#DejaVuSans-33"
                 id="use184702" />
              <use
                 x="63.623047"
                 xlink:href="#DejaVuSans-35"
                 id="use184704" />
            </g>
          </g>
        </g>
        <g
           id="ytick_9">
          <g
             id="line2d_14">
            <g
               id="g184712">
              <use
                 style="stroke:#000000;stroke-width:0.8"
                 x="63"
                 xlink:href="#mcc6db79a2a"
                 y="82.94751"
                 id="use184710" />
            </g>
          </g>
          <g
             id="text_15">
            <!-- 40 -->
            <g
               transform="matrix(0.1,0,0,-0.1,43.275,86.746731)"
               id="g184719">
              <use
                 xlink:href="#DejaVuSans-34"
                 id="use184715" />
              <use
                 x="63.623047"
                 xlink:href="#DejaVuSans-30"
                 id="use184717" />
            </g>
          </g>
        </g>
      </g>
      <g
         id="line2d_15">
        <path
           clip-path="url(#pd49cec9384)"
           d="M 80.754545,422.928 V 57.024"
           style="fill:none;stroke:#ff0000;stroke-width:2;stroke-linecap:square"
           id="path184741" />
      </g>
      <g
         id="patch_13">
        <path
           d="M 63,422.928 V 57.024"
           style="fill:none;stroke:#000000;stroke-width:0.8;stroke-linecap:square;stroke-linejoin:miter"
           id="path184744" />
      </g>
      <g
         id="patch_14">
        <path
           d="M 453.6,422.928 V 57.024"
           style="fill:none;stroke:#000000;stroke-width:0.8;stroke-linecap:square;stroke-linejoin:miter"
           id="path184747" />
      </g>
      <g
         id="patch_15">
        <path
           d="M 63,422.928 H 453.6"
           style="fill:none;stroke:#000000;stroke-width:0.8;stroke-linecap:square;stroke-linejoin:miter"
           id="path184750" />
      </g>
      <g
         id="patch_16">
        <path
           d="M 63,57.024 H 453.6"
           style="fill:none;stroke:#000000;stroke-width:0.8;stroke-linecap:square;stroke-linejoin:miter"
           id="path184753" />
      </g>
      <g
         id="text_17">
        <!-- p-value = 0.009901 -->
        <g
           transform="matrix(0.12,0,0,-0.12,198.62344,51.024)"
           id="g184801">
          <defs
             id="defs184763">
            <path
               d="M 1159,525 V -1331 H 581 v 4831 h 578 v -531 q 182,312 458,463 277,152 661,152 638,0 1036,-506 399,-506 399,-1331 0,-825 -399,-1332 -398,-506 -1036,-506 -384,0 -661,152 -276,152 -458,464 z m 1957,1222 q 0,634 -261,995 -261,361 -717,361 -457,0 -718,-361 -261,-361 -261,-995 0,-634 261,-995 261,-361 718,-361 456,0 717,361 261,361 261,995 z"
               id="DejaVuSans-70"
               transform="scale(0.015625)" />
            <path
               d="M 313,2009 H 1997 V 1497 H 313 Z"
               id="DejaVuSans-2d"
               transform="scale(0.015625)" />
            <path
               d="M 191,3500 H 800 L 1894,563 2988,3500 h 609 L 2284,0 h -781 z"
               id="DejaVuSans-76"
               transform="scale(0.015625)" />
            <path
               d="M 3597,1894 V 1613 H 953 q 38,-594 358,-905 320,-311 892,-311 331,0 642,81 311,81 618,244 V 178 Q 3153,47 2828,-22 2503,-91 2169,-91 1331,-91 842,396 353,884 353,1716 q 0,859 464,1363 464,505 1252,505 706,0 1117,-455 411,-454 411,-1235 z m -575,169 q -6,471 -264,752 -258,282 -683,282 -481,0 -770,-272 -289,-272 -333,-766 z"
               id="DejaVuSans-65"
               transform="scale(0.015625)" />
            <path
               d="M 678,2906 H 4684 V 2381 H 678 Z m 0,-1275 H 4684 V 1100 H 678 Z"
               id="DejaVuSans-3d"
               transform="scale(0.015625)" />
            <path
               d="m 684,794 h 660 V 0 H 684 Z"
               id="DejaVuSans-2e"
               transform="scale(0.015625)" />
            <path
               d="m 703,97 v 575 q 238,-113 481,-172 244,-59 479,-59 625,0 954,420 330,420 377,1277 -181,-269 -460,-413 -278,-144 -615,-144 -700,0 -1108,423 -408,424 -408,1159 0,718 425,1152 425,435 1131,435 810,0 1236,-621 427,-620 427,-1801 Q 3622,1225 3098,567 2575,-91 1691,-91 1453,-91 1209,-44 966,3 703,97 Z m 1256,1978 q 425,0 673,290 249,291 249,798 0,503 -249,795 -248,292 -673,292 -425,0 -673,-292 -248,-292 -248,-795 0,-507 248,-798 248,-290 673,-290 z"
               id="DejaVuSans-39"
               transform="scale(0.015625)" />
          </defs>
          <use
             xlink:href="#DejaVuSans-70"
             id="use184765" />
          <use
             x="63.476562"
             xlink:href="#DejaVuSans-2d"
             id="use184767" />
          <use
             x="96.935547"
             xlink:href="#DejaVuSans-76"
             id="use184769" />
          <path
             d="m 190.39648,27.484375 q -10.89062,0 -15.09375,-2.484375 -4.20312,-2.484375 -4.20312,-8.5 0,-4.78125 3.15625,-7.59375 3.15625,-2.796875 8.5625,-2.796875 7.48437,0 12,5.296875 4.51562,5.296875 4.51562,14.078125 v 2 z m 17.92188,3.71875 V 0 h -8.98438 v 8.296875 q -3.07812,-4.96875 -7.67187,-7.34375 -4.59375,-2.375 -11.23438,-2.375 -8.39062,0 -13.35937,4.71875 -4.95313,4.71875 -4.95313,12.625 0,9.21875 6.17188,13.90625 6.1875,4.6875 18.4375,4.6875 h 12.60937 v 0.890625 q 0,6.203125 -4.07812,9.59375 -4.07813,3.390625 -11.45313,3.390625 -4.6875,0 -9.14062,-1.125 -4.4375,-1.125 -8.53125,-3.375 v 8.3125 q 4.92187,1.90625 9.5625,2.84375 Q 180.33398,56 184.72461,56 q 11.875,0 17.73437,-6.15625 5.85938,-6.140625 5.85938,-18.640625 z"
             id="use184771"
             style="stroke-width:0.015625" />
          <path
             d="m 226.81641,75.984375 h 8.98437 V 0 h -8.98437 z"
             id="use184773"
             style="stroke-width:0.015625" />
          <path
             d="M 253.67773,21.578125 V 54.6875 h 8.98438 V 21.921875 q 0,-7.765625 3.01562,-11.65625 3.03125,-3.875 9.09375,-3.875 7.26563,0 11.48438,4.640625 4.23437,4.640625 4.23437,12.65625 v 31 h 8.98438 V 0 h -8.98438 V 8.40625 Q 287.22461,3.421875 282.89648,1 q -4.3125,-2.421875 -10.03125,-2.421875 -9.42187,0 -14.3125,5.859375 -4.875,5.859375 -4.875,17.140625 z M 276.28711,56 Z"
             id="use184775"
             style="stroke-width:0.015625" />
          <use
             x="308.55664"
             xlink:href="#DejaVuSans-65"
             id="use184777" />
          <path
             id="use184779"
             d=""
             style="stroke-width:0.015625" />
          <use
             x="401.86719"
             xlink:href="#DejaVuSans-3d"
             id="use184781" />
          <path
             id="use184783"
             d=""
             style="stroke-width:0.015625" />
          <use
             x="517.44336"
             xlink:href="#DejaVuSans-30"
             id="use184785" />
          <use
             x="581.06641"
             xlink:href="#DejaVuSans-2e"
             id="use184787" />
          <use
             x="612.85352"
             xlink:href="#DejaVuSans-30"
             id="use184789" />
          <use
             x="676.47656"
             xlink:href="#DejaVuSans-30"
             id="use184791" />
          <use
             x="740.09961"
             xlink:href="#DejaVuSans-39"
             id="use184793" />
          <use
             x="803.72266"
             xlink:href="#DejaVuSans-39"
             id="use184795" />
          <use
             x="867.3457"
             xlink:href="#DejaVuSans-30"
             id="use184797" />
          <use
             x="930.96875"
             xlink:href="#DejaVuSans-31"
             id="use184799" />
        </g>
      </g>
      <text
         xml:space="preserve"
         transform="matrix(0,-0.36956157,0.36956157,0,36.836811,320.71664)"
         id="text185487"
         style="font-style:normal;font-variant:normal;font-weight:bold;font-stretch:normal;font-size:40px;line-height:1.25;font-family:sans-serif;-inkscape-font-specification:'sans-serif, Bold';font-variant-ligatures:normal;font-variant-caps:normal;font-variant-numeric:normal;font-variant-east-asian:normal;letter-spacing:0px;white-space:pre;shape-inside:url(#rect185489);display:inline;stroke-width:2.02944"><tspan
           x="123.93359"
           y="-15.559522"
           id="tspan188176"><tspan
             style="stroke-width:2.3952"
             id="tspan188174">Count</tspan></tspan></text>
      <text
         xml:space="preserve"
         transform="matrix(0.36956157,0,0,0.36956157,166.45361,465.55917)"
         id="text185487-5"
         style="font-style:normal;font-variant:normal;font-weight:bold;font-stretch:normal;font-size:40px;line-height:1.25;font-family:sans-serif;-inkscape-font-specification:'sans-serif, Bold';font-variant-ligatures:normal;font-variant-caps:normal;font-variant-numeric:normal;font-variant-east-asian:normal;letter-spacing:0px;white-space:pre;shape-inside:url(#rect185489-2);display:inline;stroke-width:2.02944;stroke-linecap:butt;stroke-linejoin:round"><tspan
           x="123.93359"
           y="-15.559522"
           id="tspan188180"><tspan
             style="stroke-width:2.3952"
             id="tspan188178">Total cost</tspan></tspan></text>
    </g>
  </g>
  <defs
     id="defs184809">
    <clipPath
       id="pd49cec9384">
      <rect
         height="365.90399"
         width="390.60001"
         x="63"
         y="57.023998"
         id="rect184806" />
    </clipPath>
  </defs>
</svg>
